<svg width="21" height="20" viewBox="0 0 21 20" fill="none" xmlns="http://www.w3.org/2000/svg">
<path d="M16.3333 9.16658H11.3333V4.16659C11.3333 3.94557 11.2455 3.73361 11.0893 3.57733C10.933 3.42105 10.721 3.33325 10.5 3.33325C10.279 3.33325 10.067 3.42105 9.91075 3.57733C9.75447 3.73361 9.66668 3.94557 9.66668 4.16659V9.16658H4.66668C4.44566 9.16658 4.2337 9.25438 4.07742 9.41066C3.92114 9.56694 3.83334 9.7789 3.83334 9.99992C3.83334 10.2209 3.92114 10.4329 4.07742 10.5892C4.2337 10.7455 4.44566 10.8333 4.66668 10.8333H9.66668V15.8333C9.66668 16.0543 9.75447 16.2662 9.91075 16.4225C10.067 16.5788 10.279 16.6666 10.5 16.6666C10.721 16.6666 10.933 16.5788 11.0893 16.4225C11.2455 16.2662 11.3333 16.0543 11.3333 15.8333V10.8333H16.3333C16.5544 10.8333 16.7663 10.7455 16.9226 10.5892C17.0789 10.4329 17.1667 10.2209 17.1667 9.99992C17.1667 9.7789 17.0789 9.56694 16.9226 9.41066C16.7663 9.25438 16.5544 9.16658 16.3333 9.16658Z" fill="#7F6AFC"/>
</svg>
