<svg width="10" height="10" viewBox="0 0 10 10" fill="none" xmlns="http://www.w3.org/2000/svg">
<path d="M1.5 8H3.62C3.6858 8.00038 3.75103 7.98777 3.81195 7.96289C3.87287 7.938 3.92828 7.90134 3.975 7.855L7.435 4.39L8.855 3C8.90186 2.95352 8.93906 2.89822 8.96445 2.83729C8.98983 2.77636 9.0029 2.71101 9.0029 2.645C9.0029 2.57899 8.98983 2.51364 8.96445 2.45271C8.93906 2.39178 8.90186 2.33648 8.855 2.29L6.735 0.145C6.68852 0.0981358 6.63322 0.0609386 6.57229 0.0355543C6.51136 0.01017 6.44601 -0.00289917 6.38 -0.00289917C6.31399 -0.00289917 6.24864 0.01017 6.18771 0.0355543C6.12678 0.0609386 6.07148 0.0981358 6.025 0.145L4.615 1.56L1.145 5.025C1.09866 5.07172 1.062 5.12713 1.03711 5.18805C1.01223 5.24897 0.99962 5.3142 1 5.38V7.5C1 7.63261 1.05268 7.75979 1.14645 7.85355C1.24021 7.94732 1.36739 8 1.5 8ZM6.38 1.205L7.795 2.62L7.085 3.33L5.67 1.915L6.38 1.205ZM2 5.585L4.965 2.62L6.38 4.035L3.415 7H2V5.585ZM9.5 9H0.5C0.367392 9 0.240215 9.05268 0.146447 9.14645C0.0526784 9.24021 0 9.36739 0 9.5C0 9.63261 0.0526784 9.75979 0.146447 9.85355C0.240215 9.94732 0.367392 10 0.5 10H9.5C9.63261 10 9.75979 9.94732 9.85355 9.85355C9.94732 9.75979 10 9.63261 10 9.5C10 9.36739 9.94732 9.24021 9.85355 9.14645C9.75979 9.05268 9.63261 9 9.5 9Z" fill="#495057"/>
</svg>
