<svg width="24" height="24" viewBox="0 0 24 24" fill="none" xmlns="http://www.w3.org/2000/svg">
<path d="M6.43961 3.83436C6.70928 2.72225 8.29095 2.72225 8.56062 3.83436L9.30264 6.89441C9.39892 7.29146 9.70893 7.60147 10.106 7.69775L13.166 8.43977C14.2781 8.70944 14.2781 10.2911 13.166 10.5608L10.106 11.3028C9.70893 11.3991 9.39892 11.7091 9.30264 12.1062L8.56062 15.1662C8.29095 16.2783 6.70928 16.2783 6.43961 15.1662L5.69759 12.1062C5.60131 11.7091 5.2913 11.3991 4.89424 11.3028L1.8342 10.5608C0.722087 10.2911 0.722086 8.70944 1.8342 8.43977L4.89424 7.69776C5.2913 7.60147 5.60131 7.29146 5.69759 6.89441L6.43961 3.83436Z" fill="url(#paint0_linear_2_25)"/>
<path d="M15.3475 14.5136C15.5134 13.8292 16.4868 13.8292 16.6527 14.5136L17.1094 16.3967C17.1686 16.641 17.3594 16.8318 17.6037 16.891L19.4868 17.3477C20.1712 17.5136 20.1712 18.4869 19.4868 18.6529L17.6037 19.1095C17.3594 19.1688 17.1686 19.3596 17.1094 19.6039L16.6527 21.487C16.4868 22.1714 15.5134 22.1714 15.3475 21.487L14.8909 19.6039C14.8316 19.3596 14.6408 19.1688 14.3965 19.1095L12.5134 18.6529C11.829 18.4869 11.829 17.5136 12.5134 17.3477L14.3965 16.891C14.6408 16.8318 14.8316 16.641 14.8909 16.3967L15.3475 14.5136Z" fill="url(#paint1_linear_2_25)"/>
<path d="M18.5718 3.71212C18.6807 3.263 19.3195 3.263 19.4284 3.71212L19.7281 4.94791C19.7669 5.10826 19.8921 5.23345 20.0525 5.27234L21.2883 5.572C21.7374 5.6809 21.7374 6.31965 21.2883 6.42856L20.0525 6.72822C19.8921 6.7671 19.7669 6.8923 19.7281 7.05265L19.4284 8.28844C19.3195 8.73756 18.6807 8.73756 18.5718 8.28844L18.2722 7.05265C18.2333 6.8923 18.1081 6.7671 17.9477 6.72822L16.712 6.42856C16.2628 6.31965 16.2628 5.6809 16.712 5.572L17.9477 5.27234C18.1081 5.23345 18.2333 5.10826 18.2722 4.94791L18.5718 3.71212Z" fill="url(#paint2_linear_2_25)"/>
<path fill-rule="evenodd" clip-rule="evenodd" d="M19.0001 3.93137L18.7555 4.93999C18.6578 5.34316 18.343 5.65794 17.9398 5.7557L16.9312 6.00028L17.9398 6.24486C18.343 6.34262 18.6578 6.6574 18.7555 7.06056L19.0001 8.06919L19.2447 7.06056C19.3425 6.6574 19.6572 6.34262 20.0604 6.24486L21.069 6.00028L20.0604 5.7557C19.6572 5.65794 19.3425 5.34316 19.2447 4.93999L19.0001 3.93137ZM19.4896 3.38524C19.3651 2.87196 18.6351 2.87196 18.5106 3.38524L18.1682 4.79757C18.1237 4.98083 17.9807 5.12391 17.7974 5.16834L16.3851 5.51081C15.8718 5.63528 15.8718 6.36528 16.3851 6.48974L17.7974 6.83221C17.9807 6.87665 18.1237 7.01973 18.1682 7.20299L18.5106 8.61532C18.6351 9.1286 19.3651 9.1286 19.4896 8.61532L19.832 7.20299C19.8765 7.01973 20.0196 6.87665 20.2028 6.83221L21.6152 6.48974C22.1284 6.36528 22.1284 5.63528 21.6152 5.51081L20.2028 5.16834C20.0196 5.12391 19.8765 4.98083 19.832 4.79757L19.4896 3.38524Z" fill="url(#paint3_linear_2_25)"/>
<path d="M2.00011 19.0003C1.44783 19.0003 1.00011 18.5526 1.00011 18.0003C1.00011 17.448 1.44783 17.0003 2.00011 17.0003C2.5524 17.0003 3.00011 17.448 3.00011 18.0003C3.00011 18.5526 2.5524 19.0003 2.00011 19.0003Z" fill="url(#paint4_linear_2_25)"/>
<path d="M22.0001 14.0003C21.4478 14.0003 21.0001 13.5526 21.0001 13.0003C21.0001 12.448 21.4478 12.0003 22.0001 12.0003C22.5524 12.0003 23.0001 12.448 23.0001 13.0003C23.0001 13.5526 22.5524 14.0003 22.0001 14.0003Z" fill="url(#paint5_linear_2_25)"/>
<defs>
<linearGradient id="paint0_linear_2_25" x1="12.0001" y1="3.00028" x2="12.0001" y2="22.0003" gradientUnits="userSpaceOnUse">
<stop stop-color="#3F20FB"/>
<stop offset="1" stop-color="#B377FF"/>
</linearGradient>
<linearGradient id="paint1_linear_2_25" x1="12.0001" y1="3.00028" x2="12.0001" y2="22.0003" gradientUnits="userSpaceOnUse">
<stop stop-color="#3F20FB"/>
<stop offset="1" stop-color="#B377FF"/>
</linearGradient>
<linearGradient id="paint2_linear_2_25" x1="12.0001" y1="3.00028" x2="12.0001" y2="22.0003" gradientUnits="userSpaceOnUse">
<stop stop-color="#3F20FB"/>
<stop offset="1" stop-color="#B377FF"/>
</linearGradient>
<linearGradient id="paint3_linear_2_25" x1="12.0001" y1="3.00028" x2="12.0001" y2="22.0003" gradientUnits="userSpaceOnUse">
<stop stop-color="#3F20FB"/>
<stop offset="1" stop-color="#B377FF"/>
</linearGradient>
<linearGradient id="paint4_linear_2_25" x1="12.0001" y1="3.00028" x2="12.0001" y2="22.0003" gradientUnits="userSpaceOnUse">
<stop stop-color="#3F20FB"/>
<stop offset="1" stop-color="#B377FF"/>
</linearGradient>
<linearGradient id="paint5_linear_2_25" x1="12.0001" y1="3.00028" x2="12.0001" y2="22.0003" gradientUnits="userSpaceOnUse">
<stop stop-color="#3F20FB"/>
<stop offset="1" stop-color="#B377FF"/>
</linearGradient>
</defs>
</svg>
