<svg width="20" height="17" viewBox="0 0 20 17" fill="none" xmlns="http://www.w3.org/2000/svg">
<path d="M5.36634 1.19531C5.59106 0.268555 6.90912 0.268554 7.13385 1.19531L7.7522 3.74535C7.83243 4.07623 8.09077 4.33457 8.42165 4.41481L10.9717 5.03315C11.8984 5.25788 11.8984 6.57594 10.9717 6.80067L8.42165 7.41901C8.09077 7.49925 7.83243 7.75759 7.7522 8.08847L7.13385 10.6385C6.90912 11.5653 5.59106 11.5653 5.36634 10.6385L4.74799 8.08847C4.66776 7.75759 4.40941 7.49925 4.07853 7.41901L1.5285 6.80067C0.601738 6.57594 0.601737 5.25788 1.5285 5.03315L4.07853 4.41481C4.40941 4.33457 4.66776 4.07623 4.74799 3.74535L5.36634 1.19531Z" fill="white"/>
<path d="M12.7896 10.0946C12.9279 9.52433 13.739 9.52433 13.8773 10.0946L14.2578 11.6639C14.3072 11.8675 14.4662 12.0265 14.6698 12.0759L16.239 12.4564C16.8093 12.5947 16.8093 13.4058 16.239 13.5441L14.6698 13.9246C14.4662 13.974 14.3072 14.133 14.2578 14.3366L13.8773 15.9058C13.739 16.4762 12.9279 16.4762 12.7896 15.9058L12.4091 14.3366C12.3597 14.133 12.2007 13.974 11.9971 13.9246L10.4278 13.5441C9.85752 13.4058 9.85752 12.5947 10.4278 12.4564L11.9971 12.0759C12.2007 12.0265 12.3597 11.8675 12.4091 11.6639L12.7896 10.0946Z" fill="white"/>
<path d="M15.4765 1.09345C15.5673 0.719177 16.0996 0.719177 16.1903 1.09345L16.44 2.12327C16.4724 2.25689 16.5768 2.36122 16.7104 2.39363L17.7402 2.64334C18.1145 2.7341 18.1145 3.26639 17.7402 3.35715L16.7104 3.60686C16.5768 3.63926 16.4724 3.7436 16.44 3.87722L16.1903 4.90704C16.0996 5.28131 15.5673 5.28131 15.4765 4.90704L15.2268 3.87722C15.1944 3.7436 15.0901 3.63926 14.9564 3.60686L13.9266 3.35715C13.5524 3.26639 13.5524 2.7341 13.9266 2.64334L14.9564 2.39363C15.0901 2.36122 15.1944 2.25689 15.2268 2.12327L15.4765 1.09345Z" fill="white"/>
<path fill-rule="evenodd" clip-rule="evenodd" d="M15.8334 1.27616L15.6296 2.11667C15.5481 2.45264 15.2858 2.71496 14.9499 2.79643L14.1093 3.00024L14.9499 3.20406C15.2858 3.28553 15.5481 3.54784 15.6296 3.88382L15.8334 4.72433L16.0372 3.88382C16.1187 3.54784 16.381 3.28553 16.717 3.20406L17.5575 3.00024L16.717 2.79643C16.381 2.71496 16.1187 2.45264 16.0372 2.11667L15.8334 1.27616ZM16.2413 0.821045C16.1376 0.39331 15.5293 0.393311 15.4255 0.821046L15.1401 1.99799C15.1031 2.1507 14.9839 2.26994 14.8312 2.30697L13.6542 2.59236C13.2265 2.69608 13.2265 3.30441 13.6542 3.40813L14.8312 3.69352C14.9839 3.73055 15.1031 3.84979 15.1401 4.0025L15.4255 5.17944C15.5293 5.60718 16.1376 5.60718 16.2413 5.17944L16.5267 4.0025C16.5637 3.84979 16.683 3.73055 16.8357 3.69352L18.0126 3.40813C18.4404 3.30441 18.4404 2.69608 18.0126 2.59236L16.8357 2.30697C16.683 2.26994 16.5637 2.1507 16.5267 1.99799L16.2413 0.821045Z" fill="white"/>
<path d="M1.66676 13.8336C1.20652 13.8336 0.833427 13.4605 0.833427 13.0002C0.833427 12.54 1.20652 12.1669 1.66676 12.1669C2.127 12.1669 2.50009 12.54 2.50009 13.0002C2.50009 13.4605 2.127 13.8336 1.66676 13.8336Z" fill="white"/>
<path d="M18.3334 9.66691C17.8732 9.66691 17.5001 9.29382 17.5001 8.83358C17.5001 8.37334 17.8732 8.00024 18.3334 8.00025C18.7937 8.00025 19.1668 8.37334 19.1668 8.83358C19.1668 9.29382 18.7937 9.66691 18.3334 9.66691Z" fill="white"/>
</svg>
