<svg width="16" height="16" viewBox="0 0 16 16" fill="none" xmlns="http://www.w3.org/2000/svg">
<path d="M12.6666 1.33334H3.33331C2.80288 1.33334 2.29417 1.54406 1.9191 1.91913C1.54403 2.2942 1.33331 2.80291 1.33331 3.33334V10C1.33331 10.5304 1.54403 11.0392 1.9191 11.4142C2.29417 11.7893 2.80288 12 3.33331 12H5.33331V13.3333H3.33331C3.1565 13.3333 2.98693 13.4036 2.86191 13.5286C2.73688 13.6536 2.66665 13.8232 2.66665 14C2.66665 14.1768 2.73688 14.3464 2.86191 14.4714C2.98693 14.5964 3.1565 14.6667 3.33331 14.6667H12.6666C12.8435 14.6667 13.013 14.5964 13.1381 14.4714C13.2631 14.3464 13.3333 14.1768 13.3333 14C13.3333 13.8232 13.2631 13.6536 13.1381 13.5286C13.013 13.4036 12.8435 13.3333 12.6666 13.3333H10.6666V12H12.6666C13.1971 12 13.7058 11.7893 14.0809 11.4142C14.4559 11.0392 14.6666 10.5304 14.6666 10V3.33334C14.6666 2.80291 14.4559 2.2942 14.0809 1.91913C13.7058 1.54406 13.1971 1.33334 12.6666 1.33334ZM9.33331 13.3333H6.66665V12H9.33331V13.3333ZM13.3333 10C13.3333 10.1768 13.2631 10.3464 13.1381 10.4714C13.013 10.5964 12.8435 10.6667 12.6666 10.6667H3.33331C3.1565 10.6667 2.98693 10.5964 2.86191 10.4714C2.73688 10.3464 2.66665 10.1768 2.66665 10V9.33334H13.3333V10ZM13.3333 8.00001H2.66665V3.33334C2.66665 3.15653 2.73688 2.98696 2.86191 2.86194C2.98693 2.73691 3.1565 2.66668 3.33331 2.66668H12.6666C12.8435 2.66668 13.013 2.73691 13.1381 2.86194C13.2631 2.98696 13.3333 3.15653 13.3333 3.33334V8.00001Z" fill="#6C757D"/>
</svg>
