<svg width="18" height="18" viewBox="0 0 18 18" fill="none" xmlns="http://www.w3.org/2000/svg">
<path d="M1.08332 6.38333L8.58332 10.7167C8.71 10.7898 8.8537 10.8283 8.99998 10.8283C9.14627 10.8283 9.28997 10.7898 9.41665 10.7167L16.9167 6.38333C17.0426 6.31062 17.1473 6.20621 17.2204 6.08049C17.2935 5.95476 17.3324 5.81209 17.3333 5.66667C17.3339 5.51982 17.2957 5.37544 17.2225 5.24812C17.1493 5.12081 17.0438 5.01509 16.9167 4.94167L9.41665 0.616666C9.28997 0.543525 9.14627 0.50502 8.99998 0.50502C8.8537 0.50502 8.71 0.543525 8.58332 0.616666L1.08332 4.94167C0.956148 5.01509 0.850636 5.12081 0.777467 5.24812C0.704297 5.37544 0.666068 5.51982 0.666651 5.66667C0.667529 5.81209 0.70645 5.95476 0.779547 6.08049C0.852643 6.20621 0.95737 6.31062 1.08332 6.38333ZM8.99998 2.33333L14.8333 5.66667L8.99998 9L3.16665 5.66667L8.99998 2.33333ZM16.0833 8.30833L8.99998 12.3333L1.91665 8.275C1.82154 8.2199 1.71647 8.18416 1.60749 8.16984C1.4985 8.15552 1.38777 8.16291 1.28165 8.19156C1.17553 8.22022 1.07613 8.26959 0.989177 8.33683C0.902221 8.40407 0.829426 8.48784 0.774985 8.58333C0.666341 8.77468 0.637786 9.00123 0.69555 9.21355C0.753314 9.42587 0.892708 9.60673 1.08332 9.71667L8.58332 14.05C8.71 14.1231 8.8537 14.1616 8.99998 14.1616C9.14627 14.1616 9.28997 14.1231 9.41665 14.05L16.9167 9.71667C17.1073 9.60673 17.2467 9.42587 17.3044 9.21355C17.3622 9.00123 17.3336 8.77468 17.225 8.58333C17.1705 8.48784 17.0977 8.40407 17.0108 8.33683C16.9238 8.26959 16.8244 8.22022 16.7183 8.19156C16.6122 8.16291 16.5015 8.15552 16.3925 8.16984C16.2835 8.18416 16.1784 8.2199 16.0833 8.275V8.30833ZM16.0833 11.6417L8.99998 15.6667L1.91665 11.6083C1.82154 11.5532 1.71647 11.5175 1.60749 11.5032C1.4985 11.4889 1.38777 11.4962 1.28165 11.5249C1.17553 11.5536 1.07613 11.6029 0.989177 11.6702C0.902221 11.7374 0.829426 11.8212 0.774985 11.9167C0.666341 12.108 0.637786 12.3346 0.69555 12.5469C0.753314 12.7592 0.892708 12.9401 1.08332 13.05L8.58332 17.3833C8.71 17.4565 8.8537 17.495 8.99998 17.495C9.14627 17.495 9.28997 17.4565 9.41665 17.3833L16.9167 13.05C17.1073 12.9401 17.2467 12.7592 17.3044 12.5469C17.3622 12.3346 17.3336 12.108 17.225 11.9167C17.1705 11.8212 17.0977 11.7374 17.0108 11.6702C16.9238 11.6029 16.8244 11.5536 16.7183 11.5249C16.6122 11.4962 16.5015 11.4889 16.3925 11.5032C16.2835 11.5175 16.1784 11.5532 16.0833 11.6083V11.6417Z" fill="#6C757D"/>
</svg>
