<svg width="16" height="16" viewBox="0 0 16 16" fill="none" xmlns="http://www.w3.org/2000/svg">
<path d="M6.66666 8C6.66666 8.26371 6.74486 8.52149 6.89136 8.74076C7.03787 8.96002 7.24611 9.13092 7.48975 9.23184C7.73338 9.33276 8.00147 9.35916 8.26011 9.30771C8.51875 9.25627 8.75633 9.12928 8.9428 8.94281C9.12927 8.75634 9.25626 8.51876 9.3077 8.26012C9.35915 8.00148 9.33275 7.73339 9.23183 7.48975C9.13091 7.24612 8.96002 7.03788 8.74075 6.89137C8.52148 6.74486 8.2637 6.66667 7.99999 6.66667C7.64637 6.66667 7.30723 6.80714 7.05718 7.05719C6.80713 7.30724 6.66666 7.64638 6.66666 8ZM6.66666 12.6667C6.66666 12.9304 6.74486 13.1882 6.89136 13.4074C7.03787 13.6267 7.24611 13.7976 7.48975 13.8985C7.73338 13.9994 8.00147 14.0258 8.26011 13.9744C8.51875 13.9229 8.75633 13.7959 8.9428 13.6095C9.12927 13.423 9.25626 13.1854 9.3077 12.9268C9.35915 12.6681 9.33275 12.4001 9.23183 12.1564C9.13091 11.9128 8.96002 11.7045 8.74075 11.558C8.52148 11.4115 8.2637 11.3333 7.99999 11.3333C7.64637 11.3333 7.30723 11.4738 7.05718 11.7239C6.80713 11.9739 6.66666 12.313 6.66666 12.6667ZM6.66666 3.33333C6.66666 3.59704 6.74486 3.85483 6.89136 4.07409C7.03787 4.29336 7.24611 4.46426 7.48975 4.56517C7.73338 4.66609 8.00147 4.69249 8.26011 4.64105C8.51875 4.5896 8.75633 4.46261 8.9428 4.27614C9.12927 4.08967 9.25626 3.85209 9.3077 3.59345C9.35915 3.33481 9.33275 3.06672 9.23183 2.82309C9.13091 2.57945 8.96002 2.37122 8.74075 2.22471C8.52148 2.0782 8.2637 2 7.99999 2C7.64637 2 7.30723 2.14048 7.05718 2.39052C6.80713 2.64057 6.66666 2.97971 6.66666 3.33333Z" fill="#48484D"/>
</svg>
