<svg width="18" height="18" viewBox="0 0 18 18" fill="none" xmlns="http://www.w3.org/2000/svg">
<path d="M8.99996 0.666668C7.35179 0.666668 5.74062 1.15541 4.37021 2.07109C2.9998 2.98677 1.9317 4.28825 1.30097 5.81097C0.670237 7.33369 0.505209 9.00925 0.826752 10.6258C1.1483 12.2423 1.94197 13.7271 3.10741 14.8926C4.27284 16.058 5.7577 16.8517 7.37421 17.1732C8.99072 17.4948 10.6663 17.3297 12.189 16.699C13.7117 16.0683 15.0132 15.0002 15.9289 13.6298C16.8446 12.2593 17.3333 10.6482 17.3333 9C17.3311 6.79054 16.4524 4.67221 14.8901 3.10988C13.3278 1.54756 11.2094 0.668874 8.99996 0.666668ZM8.99996 15.6667C7.68142 15.6667 6.39249 15.2757 5.29616 14.5431C4.19983 13.8106 3.34535 12.7694 2.84077 11.5512C2.33618 10.3331 2.20416 8.99261 2.46139 7.6994C2.71863 6.40619 3.35357 5.21831 4.28592 4.28596C5.21827 3.35361 6.40615 2.71867 7.69936 2.46143C8.99257 2.2042 10.333 2.33622 11.5512 2.8408C12.7694 3.34539 13.8105 4.19987 14.5431 5.2962C15.2756 6.39253 15.6666 7.68146 15.6666 9C15.6644 10.7674 14.9613 12.4618 13.7116 13.7116C12.4618 14.9614 10.7674 15.6645 8.99996 15.6667ZM8.99996 8.58333C8.77895 8.58333 8.56699 8.67113 8.41071 8.82741C8.25443 8.98369 8.16663 9.19565 8.16663 9.41667V11.9167C8.16663 12.1377 8.25443 12.3496 8.41071 12.5059C8.56699 12.6622 8.77895 12.75 8.99996 12.75C9.22098 12.75 9.43294 12.6622 9.58922 12.5059C9.7455 12.3496 9.8333 12.1377 9.8333 11.9167V9.41667C9.8333 9.19565 9.7455 8.98369 9.58922 8.82741C9.43294 8.67113 9.22098 8.58333 8.99996 8.58333ZM8.99996 5.25C8.79394 5.25 8.59255 5.31109 8.42124 5.42555C8.24994 5.54001 8.11643 5.7027 8.03759 5.89304C7.95875 6.08338 7.93812 6.29282 7.97831 6.49489C8.0185 6.69695 8.11771 6.88256 8.26339 7.02824C8.40907 7.17392 8.59468 7.27313 8.79674 7.31332C8.99881 7.35351 9.20825 7.33288 9.39859 7.25404C9.58893 7.1752 9.75162 7.04169 9.86608 6.87039C9.98054 6.69909 10.0416 6.49769 10.0416 6.29167C10.0416 6.0154 9.93188 5.75045 9.73653 5.5551C9.54118 5.35975 9.27623 5.25 8.99996 5.25Z" fill="#48484D"/>
</svg>
