<svg width="11" height="10" viewBox="0 0 11 10" fill="none" xmlns="http://www.w3.org/2000/svg">
<path d="M9.99999 3.835C9.96841 3.74354 9.91098 3.66321 9.83465 3.60375C9.75833 3.54428 9.66639 3.50824 9.56999 3.5L6.72499 3.085L5.44999 0.499996C5.40905 0.415461 5.34512 0.344167 5.26553 0.294283C5.18595 0.244399 5.09392 0.217941 4.99999 0.217941C4.90606 0.217941 4.81403 0.244399 4.73444 0.294283C4.65486 0.344167 4.59093 0.415461 4.54999 0.499996L3.27499 3.08L0.429989 3.5C0.33745 3.51315 0.250451 3.55198 0.178864 3.61208C0.107277 3.67217 0.0539687 3.75113 0.0249887 3.84C-0.0015388 3.92683 -0.00391932 4.01926 0.0181026 4.10734C0.0401245 4.19543 0.0857175 4.27586 0.149989 4.34L2.21499 6.34L1.71499 9.18C1.6948 9.27421 1.70227 9.37224 1.73648 9.46231C1.7707 9.55238 1.83021 9.63065 1.90785 9.68769C1.9855 9.74474 2.07797 9.77814 2.17415 9.78387C2.27033 9.7896 2.36612 9.76742 2.44999 9.72L4.99999 8.385L7.54999 9.72C7.62016 9.75958 7.69942 9.78026 7.77999 9.78C7.8859 9.78037 7.9892 9.74711 8.07499 9.685C8.15256 9.62943 8.21261 9.55282 8.24805 9.46422C8.28349 9.37562 8.29284 9.27874 8.27499 9.185L7.77499 6.345L9.83999 4.345C9.91218 4.28384 9.96554 4.20345 9.99386 4.11317C10.0222 4.02289 10.0243 3.92643 9.99999 3.835ZM6.92499 5.835C6.86712 5.8912 6.8237 5.96057 6.79845 6.03719C6.7732 6.11381 6.76687 6.1954 6.77999 6.275L7.13999 8.375L5.25999 7.375C5.18692 7.33885 5.10651 7.32005 5.02499 7.32005C4.94347 7.32005 4.86305 7.33885 4.78999 7.375L2.90999 8.375L3.26999 6.275C3.28311 6.1954 3.27677 6.11381 3.25152 6.03719C3.22627 5.96057 3.18286 5.8912 3.12499 5.835L1.62499 4.335L3.72999 4.03C3.81099 4.01873 3.88799 3.98777 3.95424 3.93982C4.02049 3.89188 4.07397 3.82842 4.10999 3.755L4.99999 1.85L5.93999 3.76C5.97601 3.83342 6.02949 3.89688 6.09574 3.94482C6.16199 3.99277 6.23899 4.02373 6.31999 4.035L8.42499 4.34L6.92499 5.835Z" fill="#48484D"/>
</svg>
