<svg width="18" height="18" viewBox="0 0 18 18" fill="none" xmlns="http://www.w3.org/2000/svg">
<path d="M16.5 0.666016H1.49996C1.27895 0.666016 1.06698 0.753813 0.910704 0.910093C0.754423 1.06637 0.666626 1.27834 0.666626 1.49935V16.4993C0.666626 16.7204 0.754423 16.9323 0.910704 17.0886C1.06698 17.2449 1.27895 17.3327 1.49996 17.3327H16.5C16.721 17.3327 16.9329 17.2449 17.0892 17.0886C17.2455 16.9323 17.3333 16.7204 17.3333 16.4993V1.49935C17.3333 1.27834 17.2455 1.06637 17.0892 0.910093C16.9329 0.753813 16.721 0.666016 16.5 0.666016ZM5.66663 15.666H2.33329V2.33268H5.66663V15.666ZM15.6666 15.666H7.33329V9.83268H15.6666V15.666ZM15.6666 8.16602H7.33329V2.33268H15.6666V8.16602Z" fill="#606067"/>
</svg>
